<?xml version="1.0" encoding="UTF-8" standalone="no"?>
<!DOCTYPE svg PUBLIC "-//W3C//DTD SVG 1.1//EN"
 "http://www.w3.org/Graphics/SVG/1.1/DTD/svg11.dtd">
<!-- Generated by graphviz version 2.40.1 (20161225.0304)
 -->
<!-- Title: map Pages: 1 -->
<svg width="487pt" height="1103pt"
 viewBox="0.00 0.00 486.94 1103.00" xmlns="http://www.w3.org/2000/svg" xmlns:xlink="http://www.w3.org/1999/xlink">
<g id="graph0" class="graph" transform="scale(1 1) rotate(0) translate(4 1099)">
<title>map</title>
<polygon fill="#ffffff" stroke="transparent" points="-4,4 -4,-1099 482.9404,-1099 482.9404,4 -4,4"/>
<!-- _1guo122 -->
<g id="node1" class="node">
<title>_1guo122</title>
<polygon fill="#00ff00" stroke="#000000" points="253.2773,-.5 253.2773,-36.5 364.9463,-36.5 364.9463,-.5 253.2773,-.5"/>
<text text-anchor="middle" x="309.1118" y="-14.3" font-family="Times,serif" font-size="14.00" fill="#000000">guo122.github.io</text>
</g>
<!-- _2BuildScript -->
<g id="node2" class="node">
<title>_2BuildScript</title>
<polygon fill="#00ff00" stroke="#000000" points="268.8325,-82.5 268.8325,-118.5 349.3911,-118.5 349.3911,-82.5 268.8325,-82.5"/>
<text text-anchor="middle" x="309.1118" y="-96.3" font-family="Times,serif" font-size="14.00" fill="#000000">BuildScript</text>
</g>
<!-- _3gzyBase -->
<g id="node3" class="node">
<title>_3gzyBase</title>
<polygon fill="#00ff00" stroke="#000000" points="64.9277,-178.5 64.9277,-214.5 128.3555,-214.5 128.3555,-178.5 64.9277,-178.5"/>
<text text-anchor="middle" x="96.6416" y="-192.3" font-family="Times,serif" font-size="14.00" fill="#000000">gzyBase</text>
</g>
<!-- _4gzyTools -->
<g id="node4" class="node">
<title>_4gzyTools</title>
<polygon fill="#00ff00" stroke="#000000" points="275.5488,-178.5 275.5488,-214.5 342.6748,-214.5 342.6748,-178.5 275.5488,-178.5"/>
<text text-anchor="middle" x="309.1118" y="-192.3" font-family="Times,serif" font-size="14.00" fill="#000000">gzyTools</text>
</g>
<!-- _3gzyBase&#45;&gt;_4gzyTools -->
<g id="edge2" class="edge">
<title>_3gzyBase&#45;&gt;_4gzyTools</title>
<path fill="none" stroke="#000000" d="M128.4505,-196.5C164.7655,-196.5 224.398,-196.5 265.1436,-196.5"/>
<polygon fill="#000000" stroke="#000000" points="265.327,-200.0001 275.327,-196.5 265.3269,-193.0001 265.327,-200.0001"/>
</g>
<!-- _5ggShell -->
<g id="node5" class="node">
<title>_5ggShell</title>
<polygon fill="#00ff00" stroke="#000000" points="67.252,-233.5 67.252,-269.5 126.0313,-269.5 126.0313,-233.5 67.252,-233.5"/>
<text text-anchor="middle" x="96.6416" y="-247.3" font-family="Times,serif" font-size="14.00" fill="#000000">ggShell</text>
</g>
<!-- _6unpv1Study -->
<g id="node6" class="node">
<title>_6unpv1Study</title>
<polygon fill="#00ff00" stroke="#000000" points="54.8037,-288.5 54.8037,-324.5 138.4795,-324.5 138.4795,-288.5 54.8037,-288.5"/>
<text text-anchor="middle" x="96.6416" y="-302.3" font-family="Times,serif" font-size="14.00" fill="#000000">unpv1Study</text>
</g>
<!-- _7YellowS -->
<g id="node7" class="node">
<title>_7YellowS</title>
<polygon fill="#00ff00" stroke="#000000" points="64.8389,-343.5 64.8389,-379.5 128.4443,-379.5 128.4443,-343.5 64.8389,-343.5"/>
<text text-anchor="middle" x="96.6416" y="-357.3" font-family="Times,serif" font-size="14.00" fill="#000000">YellowS</text>
</g>
<!-- _8SxB -->
<g id="node8" class="node">
<title>_8SxB</title>
<polygon fill="#00ff00" stroke="#000000" points="424.9404,-508.5 424.9404,-544.5 478.9404,-544.5 478.9404,-508.5 424.9404,-508.5"/>
<text text-anchor="middle" x="451.9404" y="-522.3" font-family="Times,serif" font-size="14.00" fill="#000000">SxB</text>
</g>
<!-- _9old_SxB -->
<g id="node9" class="node">
<title>_9old_SxB</title>
<polygon fill="#ff0000" stroke="#000000" points="276.605,-508.5 276.605,-544.5 341.6187,-544.5 341.6187,-508.5 276.605,-508.5"/>
<text text-anchor="middle" x="309.1118" y="-522.3" font-family="Times,serif" font-size="14.00" fill="#000000">old_SxB</text>
</g>
<!-- _9old_SxB&#45;&gt;_8SxB -->
<g id="edge10" class="edge">
<title>_9old_SxB&#45;&gt;_8SxB</title>
<path fill="none" stroke="#000000" d="M341.8796,-526.5C363.4937,-526.5 391.8666,-526.5 414.3909,-526.5"/>
<polygon fill="#000000" stroke="#000000" points="414.6023,-530.0001 424.6023,-526.5 414.6022,-523.0001 414.6023,-530.0001"/>
</g>
<!-- _10retlab -->
<g id="node10" class="node">
<title>_10retlab</title>
<polygon fill="#ffff00" stroke="#000000" points="44.7207,-.5 44.7207,-36.5 148.5625,-36.5 148.5625,-.5 44.7207,-.5"/>
<text text-anchor="middle" x="96.6416" y="-14.3" font-family="Times,serif" font-size="14.00" fill="#000000">benbalter/retlab</text>
</g>
<!-- _10retlab&#45;&gt;_1guo122 -->
<g id="edge1" class="edge">
<title>_10retlab&#45;&gt;_1guo122</title>
<path fill="none" stroke="#000000" d="M148.6177,-18.5C177.095,-18.5 212.6826,-18.5 243.1058,-18.5"/>
<polygon fill="#000000" stroke="#000000" points="243.2075,-22.0001 253.2075,-18.5 243.2074,-15.0001 243.2075,-22.0001"/>
</g>
<!-- _11polly -->
<g id="node11" class="node">
<title>_11polly</title>
<polygon fill="#ffff00" stroke="#000000" points="58.3071,-123.5 58.3071,-159.5 134.9761,-159.5 134.9761,-123.5 58.3071,-123.5"/>
<text text-anchor="middle" x="96.6416" y="-137.3" font-family="Times,serif" font-size="14.00" fill="#000000">ruslo/polly</text>
</g>
<!-- _11polly&#45;&gt;_2BuildScript -->
<g id="edge3" class="edge">
<title>_11polly&#45;&gt;_2BuildScript</title>
<path fill="none" stroke="#000000" d="M135.1184,-134.0752C169.66,-127.4098 220.6042,-117.5792 258.4506,-110.276"/>
<polygon fill="#000000" stroke="#000000" points="259.5977,-113.6193 268.7534,-108.2879 258.2713,-106.7461 259.5977,-113.6193"/>
</g>
<!-- _12ioscmake -->
<g id="node12" class="node">
<title>_12ioscmake</title>
<polygon fill="#ffff00" stroke="#000000" points="42.7759,-68.5 42.7759,-104.5 150.5073,-104.5 150.5073,-68.5 42.7759,-68.5"/>
<text text-anchor="middle" x="96.6416" y="-82.3" font-family="Times,serif" font-size="14.00" fill="#000000">leetal/ios&#45;cmake</text>
</g>
<!-- _12ioscmake&#45;&gt;_2BuildScript -->
<g id="edge4" class="edge">
<title>_12ioscmake&#45;&gt;_2BuildScript</title>
<path fill="none" stroke="#000000" d="M150.5315,-90.0509C183.7014,-92.2365 225.948,-95.0202 258.4947,-97.1648"/>
<polygon fill="#000000" stroke="#000000" points="258.4886,-100.6719 268.6971,-97.837 258.9489,-93.687 258.4886,-100.6719"/>
</g>
<!-- _13googletest -->
<g id="node13" class="node">
<title>_13googletest</title>
<polygon fill="#ffff00" stroke="#000000" points="38.8726,-673.5 38.8726,-709.5 154.4106,-709.5 154.4106,-673.5 38.8726,-673.5"/>
<text text-anchor="middle" x="96.6416" y="-687.3" font-family="Times,serif" font-size="14.00" fill="#000000">google/googletest</text>
</g>
<!-- _14bgfx -->
<g id="node14" class="node">
<title>_14bgfx</title>
<polygon fill="#ffff00" stroke="#000000" points="46.6621,-618.5 46.6621,-654.5 146.6211,-654.5 146.6211,-618.5 46.6621,-618.5"/>
<text text-anchor="middle" x="96.6416" y="-632.3" font-family="Times,serif" font-size="14.00" fill="#000000">bkaradzic/bgfx</text>
</g>
<!-- _14bgfx&#45;&gt;_9old_SxB -->
<g id="edge5" class="edge">
<title>_14bgfx&#45;&gt;_9old_SxB</title>
<path fill="none" stroke="#000000" d="M146.9854,-625.3384C162.2525,-621.0542 178.8056,-615.476 193.2832,-608.5 225.3078,-593.069 258.0265,-568.985 280.4846,-550.9032"/>
<polygon fill="#000000" stroke="#000000" points="282.7437,-553.5771 288.2741,-544.5402 278.3153,-548.1559 282.7437,-553.5771"/>
</g>
<!-- _15bx -->
<g id="node15" class="node">
<title>_15bx</title>
<polygon fill="#ffff00" stroke="#000000" points="52.4932,-563.5 52.4932,-599.5 140.79,-599.5 140.79,-563.5 52.4932,-563.5"/>
<text text-anchor="middle" x="96.6416" y="-577.3" font-family="Times,serif" font-size="14.00" fill="#000000">bkaradzic/bx</text>
</g>
<!-- _15bx&#45;&gt;_9old_SxB -->
<g id="edge6" class="edge">
<title>_15bx&#45;&gt;_9old_SxB</title>
<path fill="none" stroke="#000000" d="M140.9237,-570.0371C177.8312,-560.4833 230.0735,-546.9598 266.5064,-537.5288"/>
<polygon fill="#000000" stroke="#000000" points="267.5335,-540.8784 276.3372,-534.984 265.7792,-534.1018 267.5335,-540.8784"/>
</g>
<!-- _16bimg -->
<g id="node16" class="node">
<title>_16bimg</title>
<polygon fill="#ffff00" stroke="#000000" points="45.1035,-508.5 45.1035,-544.5 148.1797,-544.5 148.1797,-508.5 45.1035,-508.5"/>
<text text-anchor="middle" x="96.6416" y="-522.3" font-family="Times,serif" font-size="14.00" fill="#000000">bkaradzic/bimg</text>
</g>
<!-- _16bimg&#45;&gt;_9old_SxB -->
<g id="edge7" class="edge">
<title>_16bimg&#45;&gt;_9old_SxB</title>
<path fill="none" stroke="#000000" d="M148.346,-526.5C184.5249,-526.5 232.2801,-526.5 266.3206,-526.5"/>
<polygon fill="#000000" stroke="#000000" points="266.4166,-530.0001 276.4166,-526.5 266.4166,-523.0001 266.4166,-530.0001"/>
</g>
<!-- _17SFML -->
<g id="node17" class="node">
<title>_17SFML</title>
<polygon fill="#ffff00" stroke="#000000" points="50.1245,-453.5 50.1245,-489.5 143.1587,-489.5 143.1587,-453.5 50.1245,-453.5"/>
<text text-anchor="middle" x="96.6416" y="-467.3" font-family="Times,serif" font-size="14.00" fill="#000000">SFML/SFML</text>
</g>
<!-- _17SFML&#45;&gt;_9old_SxB -->
<g id="edge8" class="edge">
<title>_17SFML&#45;&gt;_9old_SxB</title>
<path fill="none" stroke="#000000" d="M143.2691,-483.57C179.959,-493.0675 230.6736,-506.1955 266.3325,-515.4262"/>
<polygon fill="#000000" stroke="#000000" points="265.8663,-518.9208 276.4243,-518.0385 267.6205,-512.1441 265.8663,-518.9208"/>
</g>
<!-- _18granite -->
<g id="node18" class="node">
<title>_18granite</title>
<polygon fill="#ffff00" stroke="#000000" points="34.2207,-728.5 34.2207,-764.5 159.0625,-764.5 159.0625,-728.5 34.2207,-728.5"/>
<text text-anchor="middle" x="96.6416" y="-742.3" font-family="Times,serif" font-size="14.00" fill="#000000">Themaister/Granite</text>
</g>
<!-- _19theForge -->
<g id="node19" class="node">
<title>_19theForge</title>
<polygon fill="#ffff00" stroke="#000000" points="25.3853,-783.5 25.3853,-819.5 167.8979,-819.5 167.8979,-783.5 25.3853,-783.5"/>
<text text-anchor="middle" x="96.6416" y="-797.3" font-family="Times,serif" font-size="14.00" fill="#000000">ConfettiFX/The&#45;Forge</text>
</g>
<!-- _20AppIcon -->
<g id="node20" class="node">
<title>_20AppIcon</title>
<polygon fill="#ffff00" stroke="#000000" points="29.938,-398.5 29.938,-434.5 163.3452,-434.5 163.3452,-398.5 29.938,-398.5"/>
<text text-anchor="middle" x="96.6416" y="-412.3" font-family="Times,serif" font-size="14.00" fill="#000000">Nonchalant/AppIcon</text>
</g>
<!-- _20AppIcon&#45;&gt;_9old_SxB -->
<g id="edge9" class="edge">
<title>_20AppIcon&#45;&gt;_9old_SxB</title>
<path fill="none" stroke="#000000" d="M163.5282,-431.8813C173.7145,-435.1618 183.9368,-439.0186 193.2832,-443.5 225.6671,-459.0275 258.5704,-483.6353 280.9902,-502.0317"/>
<polygon fill="#000000" stroke="#000000" points="278.8317,-504.7889 288.7554,-508.4999 283.3119,-499.4104 278.8317,-504.7889"/>
</g>
<!-- _21git001 -->
<g id="node21" class="node">
<title>_21git001</title>
<polygon fill="#ffff00" stroke="#000000" points="45.6743,-838.5 45.6743,-874.5 147.6089,-874.5 147.6089,-838.5 45.6743,-838.5"/>
<text text-anchor="middle" x="96.6416" y="-852.3" font-family="Times,serif" font-size="14.00" fill="#000000">chyojn/git&#45;0.01</text>
</g>
<!-- _22iosOncenote -->
<g id="node22" class="node">
<title>_22iosOncenote</title>
<polygon fill="#ffff00" stroke="#000000" points="0,-893.5 0,-929.5 193.2832,-929.5 193.2832,-893.5 0,-893.5"/>
<text text-anchor="middle" x="96.6416" y="-907.3" font-family="Times,serif" font-size="14.00" fill="#000000">chenyufeng1991/iOS&#45;Oncenote</text>
</g>
<!-- _23sshIOS -->
<g id="node23" class="node">
<title>_23sshIOS</title>
<polygon fill="#ffff00" stroke="#000000" points="241.7485,-975.5 241.7485,-1011.5 376.4751,-1011.5 376.4751,-975.5 241.7485,-975.5"/>
<text text-anchor="middle" x="309.1118" y="-989.3" font-family="Times,serif" font-size="14.00" fill="#000000">x2on/libssh2&#45;for&#45;iOS</text>
</g>
<!-- _24sslIOS -->
<g id="node24" class="node">
<title>_24sslIOS</title>
<polygon fill="#ffff00" stroke="#000000" points="13.3403,-1003.5 13.3403,-1039.5 179.9429,-1039.5 179.9429,-1003.5 13.3403,-1003.5"/>
<text text-anchor="middle" x="96.6416" y="-1017.3" font-family="Times,serif" font-size="14.00" fill="#000000">x2on/OpenSSL&#45;for&#45;iPhone</text>
</g>
<!-- _24sslIOS&#45;&gt;_23sshIOS -->
<g id="edge11" class="edge">
<title>_24sslIOS&#45;&gt;_23sshIOS</title>
<path fill="none" stroke="#000000" d="M180.0056,-1010.514C196.9504,-1008.281 214.7102,-1005.9405 231.4477,-1003.7348"/>
<polygon fill="#000000" stroke="#000000" points="232.2638,-1007.1576 241.7207,-1002.381 231.3491,-1000.2176 232.2638,-1007.1576"/>
</g>
<!-- _25libgcryptIOS -->
<g id="node25" class="node">
<title>_25libgcryptIOS</title>
<polygon fill="#ffff00" stroke="#000000" points="26.5679,-948.5 26.5679,-984.5 166.7153,-984.5 166.7153,-948.5 26.5679,-948.5"/>
<text text-anchor="middle" x="96.6416" y="-962.3" font-family="Times,serif" font-size="14.00" fill="#000000">x2on/libgcrypt&#45;for&#45;ios</text>
</g>
<!-- _25libgcryptIOS&#45;&gt;_23sshIOS -->
<g id="edge12" class="edge">
<title>_25libgcryptIOS&#45;&gt;_23sshIOS</title>
<path fill="none" stroke="#000000" d="M166.8011,-975.4156C187.5666,-978.0544 210.4187,-980.9584 231.6194,-983.6525"/>
<polygon fill="#000000" stroke="#000000" points="231.1916,-987.1262 241.553,-984.9149 232.0741,-980.1821 231.1916,-987.1262"/>
</g>
<!-- _26tesseract -->
<g id="node26" class="node">
<title>_26tesseract</title>
<polygon fill="#ffff00" stroke="#000000" points="27.2344,-1058.5 27.2344,-1094.5 166.0488,-1094.5 166.0488,-1058.5 27.2344,-1058.5"/>
<text text-anchor="middle" x="96.6416" y="-1072.3" font-family="Times,serif" font-size="14.00" fill="#000000">tesseract&#45;ocr/tesseract</text>
</g>
<!-- _27tesseractIOS -->
<g id="node27" class="node">
<title>_27tesseractIOS</title>
<polygon fill="#ffff00" stroke="#000000" points="229.2832,-1058.5 229.2832,-1094.5 388.9404,-1094.5 388.9404,-1058.5 229.2832,-1058.5"/>
<text text-anchor="middle" x="309.1118" y="-1072.3" font-family="Times,serif" font-size="14.00" fill="#000000">gali8/Tesseract&#45;OCR&#45;iOS</text>
</g>
<!-- _26tesseract&#45;&gt;_27tesseractIOS -->
<g id="edge13" class="edge">
<title>_26tesseract&#45;&gt;_27tesseractIOS</title>
<path fill="none" stroke="#000000" d="M166.2123,-1076.5C183.0065,-1076.5 201.1941,-1076.5 218.7862,-1076.5"/>
<polygon fill="#000000" stroke="#000000" points="219.0604,-1080.0001 229.0603,-1076.5 219.0603,-1073.0001 219.0604,-1080.0001"/>
</g>
</g>
</svg>
